<svg width="226" height="226" viewBox="0 0 226 226" fill="none" xmlns="http://www.w3.org/2000/svg">
<g filter="url(#filter0_d_168_549)">
<rect x="20" y="20" width="185.734" height="185.734" rx="20" fill="white"/>
</g>
<path d="M119.866 70.9224H137.433L136.454 71.7751H119.866V70.9224Z" fill="#0B0B0B"/>
<path d="M103.246 63.5546H68.2572V65.3816H71.3191C73.4585 65.4178 77.2686 66.8605 77.2686 70.7754L77.4213 124.55C77.4213 128.031 73.8526 129.559 70.3626 129.559H68.2809L68.2809 131.758H98.9528L150.384 63H147.181L99.6175 126.565H88.7921L88.7921 96.7377V68.1002C91.8739 68.1002 96.209 68.0894 98.1181 68.0894C102.466 68.0894 104.929 68.3942 107.038 69.0229C118.059 72.3087 116.01 83.4391 116.01 83.4391C116.01 83.4391 115.832 93.8236 102.63 93.8236V98.8647C109.72 98.8647 113.259 101.931 114.143 103.465L118.272 98.408L114.875 96.7557C126.115 93.5373 126.508 83.4391 126.508 83.4391C127.739 69.7474 113.739 63.5546 103.246 63.5546Z" fill="#0B0B0B"/>
<path fill-rule="evenodd" clip-rule="evenodd" d="M68 70.9473H77.4316V71.7838H68.8139V153.347H68V70.9473ZM157.533 139.753V71.3655H158.347V142.263L157.533 139.753Z" fill="#0B0B0B"/>
<path d="M117.775 153.156H98.5341L97.6975 153.991H117.775V153.156Z" fill="#0B0B0B"/>
<path d="M84.3126 162.691H87.8026L136.54 97.7696C147.6 100.902 145.573 112.663 145.573 112.663C145.573 112.663 145.334 123.047 132.131 123.047V127.925C144.377 127.925 148.355 139.221 146.79 145.33C144.428 154.548 133.903 155.789 129.813 155.789H118.294V125.961L107.198 140.64C107.198 145.343 106.923 153.773 106.923 153.773C106.923 157.255 103.354 158.782 99.8644 158.782H97.7827V160.981H128.825C144.377 160.981 150.922 158.782 155.765 152.551C160.418 146.565 161.214 128.911 144.377 126.285V125.979C155.617 122.761 156.01 112.663 156.01 112.663C157.241 98.9709 144.867 93.6039 136.54 93.1152L84.3126 162.691Z" fill="#0B0B0B"/>
<path d="M158.347 70.9473H148.726L147.911 71.7838H158.347V70.9473Z" fill="#0B0B0B"/>
<path d="M68 153.347H87.3442L86.6131 154.183H68V153.347Z" fill="#0B0B0B"/>
<defs>
<filter id="filter0_d_168_549" x="0" y="0" width="225.734" height="225.734" filterUnits="userSpaceOnUse" color-interpolation-filters="sRGB">
<feFlood flood-opacity="0" result="BackgroundImageFix"/>
<feColorMatrix in="SourceAlpha" type="matrix" values="0 0 0 0 0 0 0 0 0 0 0 0 0 0 0 0 0 0 127 0" result="hardAlpha"/>
<feMorphology radius="5" operator="dilate" in="SourceAlpha" result="effect1_dropShadow_168_549"/>
<feOffset/>
<feGaussianBlur stdDeviation="7.5"/>
<feComposite in2="hardAlpha" operator="out"/>
<feColorMatrix type="matrix" values="0 0 0 0 0 0 0 0 0 0 0 0 0 0 0 0 0 0 0.25 0"/>
<feBlend mode="normal" in2="BackgroundImageFix" result="effect1_dropShadow_168_549"/>
<feBlend mode="normal" in="SourceGraphic" in2="effect1_dropShadow_168_549" result="shape"/>
</filter>
</defs>
</svg>
