<svg width="232" height="232" viewBox="0 0 232 232" fill="none" xmlns="http://www.w3.org/2000/svg">
<g filter="url(#filter0_d_168_551)">
<rect x="23" y="23" width="186" height="186" rx="20" fill="#0B0B0B"/>
</g>
<path d="M122.067 73.9526H139.702L138.719 74.8087H122.067V73.9526Z" fill="white"/>
<path d="M105.382 66.5568H70.2582V68.3908H73.332C75.4796 68.4272 79.3045 69.8755 79.3045 73.8055L79.4578 127.788C79.4578 131.283 75.8752 132.816 72.3718 132.816H70.282L70.282 135.024H101.073L152.703 66H149.487L101.74 129.811H90.8726L90.8726 99.8683V71.12C93.9663 71.12 98.3182 71.1091 100.235 71.1091C104.599 71.1091 107.072 71.4151 109.189 72.0462C120.253 75.3447 118.196 86.5182 118.196 86.5182C118.196 86.5182 118.018 96.9429 104.764 96.9429V102.004C111.882 102.004 115.435 105.082 116.321 106.621L120.467 101.545L117.056 99.8864C128.34 96.6555 128.735 86.5182 128.735 86.5182C129.971 72.7735 115.916 66.5568 105.382 66.5568Z" fill="white"/>
<path fill-rule="evenodd" clip-rule="evenodd" d="M70 73.978H79.4681V74.8178H70.8171V156.697H70V73.978ZM159.879 143.05V74.3979H160.697V145.569L159.879 143.05Z" fill="white"/>
<path d="M119.967 156.505H100.652L99.8123 157.343H119.967V156.505Z" fill="white"/>
<path d="M86.3759 166.078H89.8793L138.805 100.905C149.908 104.049 147.873 115.855 147.873 115.855C147.873 115.855 147.634 126.28 134.38 126.28V131.177C146.673 131.177 150.667 142.517 149.095 148.649C146.724 157.903 136.158 159.149 132.053 159.149H120.489L120.489 129.206L109.35 143.941C109.35 148.663 109.074 157.125 109.074 157.125C109.074 160.62 105.491 162.153 101.988 162.153H99.8981V164.361H131.061C146.673 164.361 153.243 162.153 158.105 155.899C162.776 149.889 163.575 132.167 146.673 129.53V129.224C157.956 125.993 158.351 115.855 158.351 115.855C159.587 102.111 147.164 96.723 138.805 96.2324L86.3759 166.078Z" fill="white"/>
<path d="M160.697 73.978H151.039L150.22 74.8178H160.697V73.978Z" fill="white"/>
<path d="M70 156.697H89.4191L88.6852 157.537H70V156.697Z" fill="white"/>
<defs>
<filter id="filter0_d_168_551" x="0" y="0" width="232" height="232" filterUnits="userSpaceOnUse" color-interpolation-filters="sRGB">
<feFlood flood-opacity="0" result="BackgroundImageFix"/>
<feColorMatrix in="SourceAlpha" type="matrix" values="0 0 0 0 0 0 0 0 0 0 0 0 0 0 0 0 0 0 127 0" result="hardAlpha"/>
<feMorphology radius="2" operator="erode" in="SourceAlpha" result="effect1_dropShadow_168_551"/>
<feOffset/>
<feGaussianBlur stdDeviation="12.5"/>
<feComposite in2="hardAlpha" operator="out"/>
<feColorMatrix type="matrix" values="0 0 0 0 0 0 0 0 0 0 0 0 0 0 0 0 0 0 0.25 0"/>
<feBlend mode="normal" in2="BackgroundImageFix" result="effect1_dropShadow_168_551"/>
<feBlend mode="normal" in="SourceGraphic" in2="effect1_dropShadow_168_551" result="shape"/>
</filter>
</defs>
</svg>
