<svg width="217" height="239" viewBox="0 0 217 239" fill="none" xmlns="http://www.w3.org/2000/svg">
<path d="M124 18.9399H166L163.658 20.9786H124V18.9399Z" fill="white"/>
<path d="M84.2658 1.32595H0.614861V5.6938H7.93529C13.05 5.78047 22.1593 9.22968 22.1593 18.5894L22.5243 147.152C22.5243 155.476 13.9923 159.127 5.64852 159.127H0.671513L0.671527 164.385H74.0016L196.964 0H189.305L75.5907 151.971H49.7095L49.7095 80.6598V12.1936C57.0774 12.1936 67.4418 12.1676 72.006 12.1676C82.4005 12.1676 88.2903 12.8965 93.3314 14.3995C119.68 22.2551 114.782 48.8655 114.782 48.8655C114.782 48.8655 114.357 73.6927 82.7919 73.6927V85.745C99.7445 85.745 108.206 93.0768 110.317 96.7427L120.191 84.6531L112.068 80.7027C138.94 73.0082 139.881 48.8655 139.881 48.8655C142.824 16.1315 109.353 1.32595 84.2658 1.32595Z" fill="white"/>
<path fill-rule="evenodd" clip-rule="evenodd" d="M0 19H22.549V21H1.94595V216H0V19ZM214.054 183.5V20H216V189.5L214.054 183.5Z" fill="white"/>
<path d="M119.001 215.544H73.0002L71.0002 217.54H119.001V215.544Z" fill="white"/>
<path d="M39 238.342H47.3438L163.864 83.1276C190.306 90.6154 185.461 118.734 185.461 118.734C185.461 118.734 184.89 143.561 153.324 143.561V155.223C182.601 155.223 192.113 182.229 188.371 196.834C182.724 218.872 157.559 221.839 147.783 221.839H120.242L120.242 150.528L93.7153 185.621C93.7153 196.866 93.0569 217.02 93.0569 217.02C93.0569 225.344 84.5248 228.996 76.1811 228.996H71.2041V234.253H145.42C182.601 234.253 198.249 228.996 209.828 214.099C220.953 199.787 222.856 157.581 182.601 151.301V150.571C209.473 142.876 210.413 118.734 210.413 118.734C213.356 85.9996 183.772 73.1683 163.864 72L39 238.342Z" fill="white"/>
<path d="M216 19H193L191.05 21H216V19Z" fill="white"/>
<path d="M0 216H46.2479L44.5 218H0V216Z" fill="white"/>
</svg>
